<svg xmlns="http://www.w3.org/2000/svg" width="256" height="256">
  <path fill="#230f38" d="M0 0h256v256H0z"/>
  <path style="fill:#54a2e1;fill-rule:evenodd" d="M112 144h32v-32h-32Zm-32-16h96v-16h-16V80h16v16h-32V80h-16v96h-16v-16H80v16h16v-32H80Z"/>
  <path style="fill:#576ab7;fill-rule:evenodd" d="M192 112h16v32h-16Zm-48 80v16h-32v-16Zm0-144v16h-32V48Zm-96 64h16v32H48Zm128 48h-32v16h-16v64h16v-16h32v16h-16v-32h16v-16h16v-16h16v-16h32v16h-16v-32h16v-16h-64v16h-16v32h16ZM80 96h32V80h16V16h-16v16H80V16h16v32H80v16H64v16H48v16H16V80h16v32H16v16h64v-16h16V80H80Z"/>
  <path style="fill:#5a318e;fill-rule:evenodd" d="M240 240h-16v-32h16v-16h-32v16h-16v32h16v-16h32ZM16 16h16v32H16v16h32V48h16V16H48v16H16Zm32 176H16v16h16v32H16v-16h32v16h16v-32H48Zm16-16H48v-16H16v16h16v-32H16v-16H0v128h128v-16h-16v-16H80v16h16v-32H80v-16H64ZM208 64h32V48h-16V16h16v16h-32V16h-16v32h16Zm-16 16h16v16h32V80h-16v32h16v16h16V0H128v16h16v16h32V16h-16v32h16v16h16Z"/>
</svg>
